<mxfile host="app.diagrams.net" modified="2023-04-17T02:29:12.786Z" agent="Mozilla/5.0 (Windows NT 10.0; Win64; x64) AppleWebKit/537.36 (KHTML, like Gecko) Chrome/112.0.0.0 Safari/537.36" etag="lgIYwkbsx-QezKlCYeRJ" version="21.1.7" type="github">
  <diagram name="第 1 页" id="hhSvN40xBggTb3Vbcqwq">
    <mxGraphModel dx="794" dy="470" grid="1" gridSize="10" guides="1" tooltips="1" connect="1" arrows="1" fold="1" page="1" pageScale="1" pageWidth="827" pageHeight="1169" math="0" shadow="0">
      <root>
        <mxCell id="0" />
        <mxCell id="1" parent="0" />
        <mxCell id="YZH8L1MQT3Sk4d5tr4Ep-1" value="用户" style="shape=umlLifeline;perimeter=lifelinePerimeter;whiteSpace=wrap;html=1;container=0;dropTarget=0;collapsible=0;recursiveResize=0;outlineConnect=0;portConstraint=eastwest;newEdgeStyle={&quot;edgeStyle&quot;:&quot;elbowEdgeStyle&quot;,&quot;elbow&quot;:&quot;vertical&quot;,&quot;curved&quot;:0,&quot;rounded&quot;:0};fontSize=16;" parent="1" vertex="1">
          <mxGeometry x="60" y="60" width="100" height="510" as="geometry" />
        </mxCell>
        <mxCell id="YZH8L1MQT3Sk4d5tr4Ep-2" value="" style="html=1;points=[];perimeter=orthogonalPerimeter;outlineConnect=0;targetShapes=umlLifeline;portConstraint=eastwest;newEdgeStyle={&quot;edgeStyle&quot;:&quot;elbowEdgeStyle&quot;,&quot;elbow&quot;:&quot;vertical&quot;,&quot;curved&quot;:0,&quot;rounded&quot;:0};fontSize=16;" parent="YZH8L1MQT3Sk4d5tr4Ep-1" vertex="1">
          <mxGeometry x="45" y="60" width="10" height="430" as="geometry" />
        </mxCell>
        <mxCell id="YZH8L1MQT3Sk4d5tr4Ep-3" value="SnapshotMgr" style="shape=umlLifeline;perimeter=lifelinePerimeter;whiteSpace=wrap;html=1;container=0;dropTarget=0;collapsible=0;recursiveResize=0;outlineConnect=0;portConstraint=eastwest;newEdgeStyle={&quot;edgeStyle&quot;:&quot;elbowEdgeStyle&quot;,&quot;elbow&quot;:&quot;vertical&quot;,&quot;curved&quot;:0,&quot;rounded&quot;:0};fontSize=16;" parent="1" vertex="1">
          <mxGeometry x="180" y="60" width="100" height="510" as="geometry" />
        </mxCell>
        <mxCell id="YZH8L1MQT3Sk4d5tr4Ep-4" value="" style="html=1;points=[];perimeter=orthogonalPerimeter;outlineConnect=0;targetShapes=umlLifeline;portConstraint=eastwest;newEdgeStyle={&quot;edgeStyle&quot;:&quot;elbowEdgeStyle&quot;,&quot;elbow&quot;:&quot;vertical&quot;,&quot;curved&quot;:0,&quot;rounded&quot;:0};fontSize=16;" parent="YZH8L1MQT3Sk4d5tr4Ep-3" vertex="1">
          <mxGeometry x="45" y="60" width="10" height="420" as="geometry" />
        </mxCell>
        <mxCell id="YZH8L1MQT3Sk4d5tr4Ep-5" value="" style="html=1;points=[];perimeter=orthogonalPerimeter;outlineConnect=0;targetShapes=umlLifeline;portConstraint=eastwest;newEdgeStyle={&quot;edgeStyle&quot;:&quot;elbowEdgeStyle&quot;,&quot;elbow&quot;:&quot;vertical&quot;,&quot;curved&quot;:0,&quot;rounded&quot;:0};fontSize=16;" parent="YZH8L1MQT3Sk4d5tr4Ep-3" vertex="1">
          <mxGeometry x="50" y="110" width="10" height="190" as="geometry" />
        </mxCell>
        <mxCell id="YZH8L1MQT3Sk4d5tr4Ep-6" value="startRecording()" style="html=1;align=left;spacingLeft=2;endArrow=block;rounded=0;edgeStyle=orthogonalEdgeStyle;curved=0;rounded=0;fontSize=16;" parent="YZH8L1MQT3Sk4d5tr4Ep-3" target="YZH8L1MQT3Sk4d5tr4Ep-5" edge="1">
          <mxGeometry x="-0.6471" y="-10" relative="1" as="geometry">
            <mxPoint x="55" y="90" as="sourcePoint" />
            <Array as="points">
              <mxPoint x="85" y="120" />
            </Array>
            <mxPoint as="offset" />
          </mxGeometry>
        </mxCell>
        <mxCell id="YZH8L1MQT3Sk4d5tr4Ep-7" value="" style="html=1;points=[];perimeter=orthogonalPerimeter;outlineConnect=0;targetShapes=umlLifeline;portConstraint=eastwest;newEdgeStyle={&quot;edgeStyle&quot;:&quot;elbowEdgeStyle&quot;,&quot;elbow&quot;:&quot;vertical&quot;,&quot;curved&quot;:0,&quot;rounded&quot;:0};fontSize=16;" parent="YZH8L1MQT3Sk4d5tr4Ep-3" vertex="1">
          <mxGeometry x="50" y="360" width="10" height="40" as="geometry" />
        </mxCell>
        <mxCell id="YZH8L1MQT3Sk4d5tr4Ep-8" value="stopRecording()" style="html=1;align=left;spacingLeft=2;endArrow=block;rounded=0;edgeStyle=orthogonalEdgeStyle;curved=0;rounded=0;fontSize=16;" parent="YZH8L1MQT3Sk4d5tr4Ep-3" target="YZH8L1MQT3Sk4d5tr4Ep-7" edge="1">
          <mxGeometry x="-0.6471" y="-10" relative="1" as="geometry">
            <mxPoint x="55" y="340" as="sourcePoint" />
            <Array as="points">
              <mxPoint x="85" y="370" />
            </Array>
            <mxPoint as="offset" />
          </mxGeometry>
        </mxCell>
        <mxCell id="YZH8L1MQT3Sk4d5tr4Ep-9" value="SqliteSnapshot&lt;br style=&quot;font-size: 16px;&quot;&gt;DbMapper" style="shape=umlLifeline;perimeter=lifelinePerimeter;whiteSpace=wrap;html=1;container=0;dropTarget=0;collapsible=0;recursiveResize=0;outlineConnect=0;portConstraint=eastwest;newEdgeStyle={&quot;edgeStyle&quot;:&quot;elbowEdgeStyle&quot;,&quot;elbow&quot;:&quot;vertical&quot;,&quot;curved&quot;:0,&quot;rounded&quot;:0};fontSize=16;" parent="1" vertex="1">
          <mxGeometry x="540" y="60" width="110" height="510" as="geometry" />
        </mxCell>
        <mxCell id="YZH8L1MQT3Sk4d5tr4Ep-10" value="" style="html=1;points=[];perimeter=orthogonalPerimeter;outlineConnect=0;targetShapes=umlLifeline;portConstraint=eastwest;newEdgeStyle={&quot;edgeStyle&quot;:&quot;elbowEdgeStyle&quot;,&quot;elbow&quot;:&quot;vertical&quot;,&quot;curved&quot;:0,&quot;rounded&quot;:0};fontSize=16;" parent="YZH8L1MQT3Sk4d5tr4Ep-9" vertex="1">
          <mxGeometry x="50" y="360" width="10" height="100" as="geometry" />
        </mxCell>
        <mxCell id="YZH8L1MQT3Sk4d5tr4Ep-11" value="Sqlite" style="shape=umlLifeline;perimeter=lifelinePerimeter;whiteSpace=wrap;html=1;container=0;dropTarget=0;collapsible=0;recursiveResize=0;outlineConnect=0;portConstraint=eastwest;newEdgeStyle={&quot;edgeStyle&quot;:&quot;elbowEdgeStyle&quot;,&quot;elbow&quot;:&quot;vertical&quot;,&quot;curved&quot;:0,&quot;rounded&quot;:0};fontSize=16;" parent="1" vertex="1">
          <mxGeometry x="670" y="60" width="100" height="510" as="geometry" />
        </mxCell>
        <mxCell id="YZH8L1MQT3Sk4d5tr4Ep-12" value="" style="html=1;points=[];perimeter=orthogonalPerimeter;outlineConnect=0;targetShapes=umlLifeline;portConstraint=eastwest;newEdgeStyle={&quot;edgeStyle&quot;:&quot;elbowEdgeStyle&quot;,&quot;elbow&quot;:&quot;vertical&quot;,&quot;curved&quot;:0,&quot;rounded&quot;:0};fontSize=16;" parent="YZH8L1MQT3Sk4d5tr4Ep-11" vertex="1">
          <mxGeometry x="45" y="140" width="10" height="320" as="geometry" />
        </mxCell>
        <mxCell id="YZH8L1MQT3Sk4d5tr4Ep-13" value="RpcRequest&lt;br style=&quot;font-size: 16px;&quot;&gt;Handler" style="shape=umlLifeline;perimeter=lifelinePerimeter;whiteSpace=wrap;html=1;container=1;dropTarget=0;collapsible=0;recursiveResize=0;outlineConnect=0;portConstraint=eastwest;newEdgeStyle={&quot;edgeStyle&quot;:&quot;elbowEdgeStyle&quot;,&quot;elbow&quot;:&quot;vertical&quot;,&quot;curved&quot;:0,&quot;rounded&quot;:0};fontSize=16;" parent="1" vertex="1">
          <mxGeometry x="300" y="60" width="100" height="510" as="geometry" />
        </mxCell>
        <mxCell id="YZH8L1MQT3Sk4d5tr4Ep-14" value="" style="html=1;points=[];perimeter=orthogonalPerimeter;outlineConnect=0;targetShapes=umlLifeline;portConstraint=eastwest;newEdgeStyle={&quot;edgeStyle&quot;:&quot;elbowEdgeStyle&quot;,&quot;elbow&quot;:&quot;vertical&quot;,&quot;curved&quot;:0,&quot;rounded&quot;:0};fontSize=16;" parent="YZH8L1MQT3Sk4d5tr4Ep-13" vertex="1">
          <mxGeometry x="45" y="230" width="10" height="80" as="geometry" />
        </mxCell>
        <mxCell id="YZH8L1MQT3Sk4d5tr4Ep-15" value="录制操作" style="html=1;verticalAlign=bottom;endArrow=block;edgeStyle=elbowEdgeStyle;elbow=vertical;curved=0;rounded=0;fontSize=16;" parent="1" source="YZH8L1MQT3Sk4d5tr4Ep-2" target="YZH8L1MQT3Sk4d5tr4Ep-4" edge="1">
          <mxGeometry width="80" relative="1" as="geometry">
            <mxPoint x="130" y="150" as="sourcePoint" />
            <mxPoint x="210" y="150" as="targetPoint" />
            <Array as="points">
              <mxPoint x="150" y="140" />
              <mxPoint x="130" y="180" />
            </Array>
          </mxGeometry>
        </mxCell>
        <mxCell id="YZH8L1MQT3Sk4d5tr4Ep-16" value="检测到录制&lt;br style=&quot;font-size: 16px;&quot;&gt;状态改变" style="html=1;verticalAlign=bottom;endArrow=block;edgeStyle=elbowEdgeStyle;elbow=vertical;curved=0;rounded=0;fontSize=16;" parent="1" target="YZH8L1MQT3Sk4d5tr4Ep-14" edge="1">
          <mxGeometry width="80" relative="1" as="geometry">
            <mxPoint x="240" y="310" as="sourcePoint" />
            <mxPoint x="330" y="250" as="targetPoint" />
            <Array as="points">
              <mxPoint x="320" y="310" />
              <mxPoint x="290" y="300" />
              <mxPoint x="280" y="260" />
              <mxPoint x="320" y="250" />
            </Array>
          </mxGeometry>
        </mxCell>
        <mxCell id="YZH8L1MQT3Sk4d5tr4Ep-17" value="记录指令" style="html=1;verticalAlign=bottom;endArrow=block;edgeStyle=elbowEdgeStyle;elbow=vertical;curved=0;rounded=0;fontSize=16;" parent="1" source="YZH8L1MQT3Sk4d5tr4Ep-14" edge="1">
          <mxGeometry width="80" relative="1" as="geometry">
            <mxPoint x="260" y="290" as="sourcePoint" />
            <mxPoint x="240" y="340" as="targetPoint" />
            <Array as="points">
              <mxPoint x="320" y="340" />
              <mxPoint x="300" y="320" />
              <mxPoint x="320" y="290" />
              <mxPoint x="260" y="320" />
            </Array>
          </mxGeometry>
        </mxCell>
        <mxCell id="YZH8L1MQT3Sk4d5tr4Ep-18" value="return" style="html=1;verticalAlign=bottom;endArrow=open;dashed=1;endSize=8;edgeStyle=elbowEdgeStyle;elbow=vertical;curved=0;rounded=0;fontSize=16;" parent="1" source="YZH8L1MQT3Sk4d5tr4Ep-5" target="YZH8L1MQT3Sk4d5tr4Ep-2" edge="1">
          <mxGeometry relative="1" as="geometry">
            <mxPoint x="230" y="290" as="sourcePoint" />
            <mxPoint x="115" y="300" as="targetPoint" />
            <Array as="points">
              <mxPoint x="180" y="350" />
              <mxPoint x="200" y="300" />
            </Array>
          </mxGeometry>
        </mxCell>
        <mxCell id="YZH8L1MQT3Sk4d5tr4Ep-19" value="停止录制" style="html=1;verticalAlign=bottom;endArrow=block;edgeStyle=elbowEdgeStyle;elbow=vertical;curved=0;rounded=0;fontSize=16;" parent="1" edge="1">
          <mxGeometry width="80" relative="1" as="geometry">
            <mxPoint x="115" y="390" as="sourcePoint" />
            <mxPoint x="225" y="390" as="targetPoint" />
            <Array as="points">
              <mxPoint x="190" y="390" />
            </Array>
          </mxGeometry>
        </mxCell>
        <mxCell id="YZH8L1MQT3Sk4d5tr4Ep-20" value="记录的指令序列持久化到数据库" style="html=1;verticalAlign=bottom;endArrow=block;edgeStyle=elbowEdgeStyle;elbow=vertical;curved=0;rounded=0;fontSize=16;" parent="1" source="YZH8L1MQT3Sk4d5tr4Ep-7" edge="1">
          <mxGeometry width="80" relative="1" as="geometry">
            <mxPoint x="235" y="450" as="sourcePoint" />
            <mxPoint x="585" y="450" as="targetPoint" />
            <Array as="points">
              <mxPoint x="290" y="450" />
              <mxPoint x="260" y="470" />
            </Array>
          </mxGeometry>
        </mxCell>
        <mxCell id="YZH8L1MQT3Sk4d5tr4Ep-21" value="SqliteMgr" style="shape=umlLifeline;perimeter=lifelinePerimeter;whiteSpace=wrap;html=1;container=1;dropTarget=0;collapsible=0;recursiveResize=0;outlineConnect=0;portConstraint=eastwest;newEdgeStyle={&quot;edgeStyle&quot;:&quot;elbowEdgeStyle&quot;,&quot;elbow&quot;:&quot;vertical&quot;,&quot;curved&quot;:0,&quot;rounded&quot;:0};fontSize=16;" parent="1" vertex="1">
          <mxGeometry x="420" y="60" width="100" height="510" as="geometry" />
        </mxCell>
        <mxCell id="YZH8L1MQT3Sk4d5tr4Ep-22" value="" style="html=1;points=[];perimeter=orthogonalPerimeter;outlineConnect=0;targetShapes=umlLifeline;portConstraint=eastwest;newEdgeStyle={&quot;edgeStyle&quot;:&quot;elbowEdgeStyle&quot;,&quot;elbow&quot;:&quot;vertical&quot;,&quot;curved&quot;:0,&quot;rounded&quot;:0};fontSize=16;" parent="YZH8L1MQT3Sk4d5tr4Ep-21" vertex="1">
          <mxGeometry x="45" y="130" width="10" height="90" as="geometry" />
        </mxCell>
        <mxCell id="YZH8L1MQT3Sk4d5tr4Ep-23" value="备份当前服务器数据到新db文件" style="html=1;verticalAlign=bottom;endArrow=block;edgeStyle=elbowEdgeStyle;elbow=vertical;curved=0;rounded=0;fontSize=16;" parent="1" source="YZH8L1MQT3Sk4d5tr4Ep-5" target="YZH8L1MQT3Sk4d5tr4Ep-22" edge="1">
          <mxGeometry width="80" relative="1" as="geometry">
            <mxPoint x="270" y="200" as="sourcePoint" />
            <mxPoint x="350" y="200" as="targetPoint" />
            <Array as="points">
              <mxPoint x="420" y="210" />
            </Array>
          </mxGeometry>
        </mxCell>
        <mxCell id="YZH8L1MQT3Sk4d5tr4Ep-24" value="return" style="html=1;verticalAlign=bottom;endArrow=open;dashed=1;endSize=8;edgeStyle=elbowEdgeStyle;elbow=vertical;curved=0;rounded=0;fontSize=16;" parent="1" source="YZH8L1MQT3Sk4d5tr4Ep-22" target="YZH8L1MQT3Sk4d5tr4Ep-5" edge="1">
          <mxGeometry relative="1" as="geometry">
            <mxPoint x="380" y="240" as="sourcePoint" />
            <mxPoint x="300" y="240" as="targetPoint" />
            <Array as="points">
              <mxPoint x="420" y="265" />
            </Array>
          </mxGeometry>
        </mxCell>
        <mxCell id="YZH8L1MQT3Sk4d5tr4Ep-25" value="备份当前数据" style="html=1;verticalAlign=bottom;endArrow=block;edgeStyle=elbowEdgeStyle;elbow=vertical;curved=0;rounded=0;fontSize=16;" parent="1" source="YZH8L1MQT3Sk4d5tr4Ep-22" target="YZH8L1MQT3Sk4d5tr4Ep-12" edge="1">
          <mxGeometry width="80" relative="1" as="geometry">
            <mxPoint x="510" y="220" as="sourcePoint" />
            <mxPoint x="590" y="220" as="targetPoint" />
            <Array as="points">
              <mxPoint x="510" y="220" />
            </Array>
          </mxGeometry>
        </mxCell>
        <mxCell id="YZH8L1MQT3Sk4d5tr4Ep-26" value="return" style="html=1;verticalAlign=bottom;endArrow=open;dashed=1;endSize=8;edgeStyle=elbowEdgeStyle;elbow=vertical;curved=0;rounded=0;fontSize=16;" parent="1" source="YZH8L1MQT3Sk4d5tr4Ep-12" target="YZH8L1MQT3Sk4d5tr4Ep-22" edge="1">
          <mxGeometry relative="1" as="geometry">
            <mxPoint x="620" y="250" as="sourcePoint" />
            <mxPoint x="540" y="250" as="targetPoint" />
            <Array as="points">
              <mxPoint x="570" y="250" />
              <mxPoint x="560" y="240" />
              <mxPoint x="540" y="250" />
              <mxPoint x="470" y="240" />
            </Array>
          </mxGeometry>
        </mxCell>
        <mxCell id="YZH8L1MQT3Sk4d5tr4Ep-27" value="保存快照文件" style="html=1;verticalAlign=bottom;endArrow=block;edgeStyle=elbowEdgeStyle;elbow=vertical;curved=0;rounded=0;fontSize=16;" parent="1" source="YZH8L1MQT3Sk4d5tr4Ep-10" target="YZH8L1MQT3Sk4d5tr4Ep-12" edge="1">
          <mxGeometry width="80" relative="1" as="geometry">
            <mxPoint x="610" y="470" as="sourcePoint" />
            <mxPoint x="690" y="470" as="targetPoint" />
            <Array as="points">
              <mxPoint x="690" y="460" />
              <mxPoint x="660" y="470" />
            </Array>
          </mxGeometry>
        </mxCell>
        <mxCell id="YZH8L1MQT3Sk4d5tr4Ep-28" value="return" style="html=1;verticalAlign=bottom;endArrow=open;dashed=1;endSize=8;edgeStyle=elbowEdgeStyle;elbow=vertical;curved=0;rounded=0;fontSize=16;" parent="1" source="YZH8L1MQT3Sk4d5tr4Ep-12" target="YZH8L1MQT3Sk4d5tr4Ep-10" edge="1">
          <mxGeometry relative="1" as="geometry">
            <mxPoint x="680" y="500" as="sourcePoint" />
            <mxPoint x="600" y="500" as="targetPoint" />
            <Array as="points">
              <mxPoint x="620" y="490" />
            </Array>
          </mxGeometry>
        </mxCell>
        <mxCell id="YZH8L1MQT3Sk4d5tr4Ep-29" value="return" style="html=1;verticalAlign=bottom;endArrow=open;dashed=1;endSize=8;edgeStyle=elbowEdgeStyle;elbow=vertical;curved=0;rounded=0;fontSize=16;" parent="1" source="YZH8L1MQT3Sk4d5tr4Ep-10" target="YZH8L1MQT3Sk4d5tr4Ep-4" edge="1">
          <mxGeometry relative="1" as="geometry">
            <mxPoint x="450" y="520" as="sourcePoint" />
            <mxPoint x="370" y="520" as="targetPoint" />
            <Array as="points">
              <mxPoint x="520" y="500" />
            </Array>
          </mxGeometry>
        </mxCell>
        <mxCell id="YZH8L1MQT3Sk4d5tr4Ep-30" value="return" style="html=1;verticalAlign=bottom;endArrow=open;dashed=1;endSize=8;edgeStyle=elbowEdgeStyle;elbow=vertical;curved=0;rounded=0;fontSize=16;" parent="1" source="YZH8L1MQT3Sk4d5tr4Ep-4" target="YZH8L1MQT3Sk4d5tr4Ep-2" edge="1">
          <mxGeometry relative="1" as="geometry">
            <mxPoint x="210" y="520" as="sourcePoint" />
            <mxPoint x="130" y="520" as="targetPoint" />
            <Array as="points">
              <mxPoint x="200" y="520" />
            </Array>
          </mxGeometry>
        </mxCell>
      </root>
    </mxGraphModel>
  </diagram>
</mxfile>
